<svg width="348" height="255" viewBox="0 0 348 255" fill="none" xmlns="http://www.w3.org/2000/svg">
<path d="M134.855 10.9985C131.177 16.3081 126.18 24.9236 123.311 36.5271C121.089 45.5153 120.868 53.3659 121.158 59.0433C127.132 57.5377 133.711 56.1517 140.841 55.0461C148.598 53.8436 155.841 53.1539 162.446 52.8027C160.902 47.1591 158.154 39.5135 153.069 31.378C146.947 21.5826 139.892 15.0013 134.855 10.9984L134.855 10.9985Z" fill="#EA9127" stroke="white" stroke-width="20" stroke-linejoin="round"/>
<path d="M272.034 29.7297C266.505 32.03 258.614 36.0471 250.601 42.9879C242.454 50.0441 237.305 57.4159 234.239 62.6148C240.299 64.6565 246.853 67.1633 253.751 70.2561C260.612 73.3322 266.814 76.5407 272.346 79.6897C274.261 74.0665 276.512 65.3025 276.406 54.4206C276.304 43.8037 273.997 35.2655 272.034 29.7297L272.034 29.7297Z" fill="#EA9127" stroke="white" stroke-width="20" stroke-linejoin="round"/>
<path d="M119.995 66.8441C118.19 75.9797 116.716 87.3248 116.719 100.365C116.721 114.265 118.401 126.277 120.398 135.8C130.086 118.075 140.934 107.477 149.469 100.945C157.254 94.9869 165.662 90.4619 169.957 80.1784C173.255 72.2797 172.7 64.4016 171.622 58.7774C164.898 58.7973 157.333 59.2121 149.117 60.3183C137.93 61.8247 128.147 64.2608 119.995 66.8441Z" fill="#E39334" stroke="white" stroke-width="20" stroke-linejoin="round"/>
<path d="M178.384 58.8245C179.078 62.4525 179.752 68.4106 178.369 75.5179C177.842 78.226 176.62 84.2036 172.541 90.3372C167.388 98.0877 162.712 98.5092 151.026 109.529C148.028 112.356 145.721 114.794 144.299 116.343C158.766 125.526 173.233 134.709 187.7 143.892C195.471 140.72 231.214 125.213 240.665 90.5363C242.03 85.5306 243.034 79.4364 242.933 72.3117C233.58 68.5257 221.911 64.6864 208.213 62.0631C197.114 59.938 187.029 59.0602 178.383 58.8252L178.384 58.8245Z" fill="#F6D365" stroke="white" stroke-width="20" stroke-linejoin="round"/>
<path d="M271.943 86.6631C272.029 91.8399 271.823 97.413 271.181 103.316C268.819 125.022 261.504 142.481 254.775 154.765C254.854 153.741 255.555 141.835 245.841 134.025C236.575 126.575 225.725 129.197 224.563 129.5C229.217 125.241 235.392 118.571 240.534 109.091C248.051 95.2326 249.615 82.2671 249.934 74.9338C257.271 78.8437 264.607 82.7535 271.943 86.6634L271.943 86.6631Z" fill="#EA9127" stroke="white" stroke-width="20" stroke-linejoin="round"/>
<path d="M121.425 143.118C130.126 163.59 138.827 184.062 147.528 204.534C154.216 207.918 164.533 212.173 177.77 214.065C191.735 216.06 203.377 214.629 210.907 213.106C224.695 195.618 238.483 178.131 252.271 160.643C248.288 161.301 243.085 161.964 236.97 162.221C231.811 162.437 225.525 162.384 217.354 161.523C201.1 159.812 200.492 157.338 185.389 155.306C171.794 153.478 171.533 155.38 156.115 153.059C146.933 151.677 140.086 149.958 133.991 147.971C128.838 146.29 124.58 144.535 121.425 143.118L121.425 143.118Z" fill="#F6D365" stroke="white" stroke-width="20" stroke-linejoin="round"/>
<path d="M179.781 150.654C176.132 147.655 171.154 143.713 165.036 139.303C161.757 136.94 159.171 135.178 156.35 133.258C152.185 130.425 146.732 126.795 140.206 122.663C139.063 124.472 137.115 128.091 136.639 133.075C136.221 137.447 137.118 140.949 137.782 142.913C143.111 143.25 148.875 143.852 154.994 144.837C164.272 146.33 172.573 148.414 179.781 150.654L179.781 150.654Z" fill="#532322" stroke="white" stroke-width="20" stroke-linejoin="round"/>
<path d="M192.954 152.448C200.857 148.945 209.488 145.49 218.825 142.261C225.551 139.935 232.049 137.932 238.266 136.203C238.891 138.252 239.877 142.493 238.785 147.659C237.932 151.693 236.167 154.612 234.988 156.258C229.751 155.121 223.984 154.125 217.738 153.424C208.612 152.4 200.272 152.207 192.954 152.448Z" fill="#532322" stroke="white" stroke-width="20" stroke-linejoin="round"/>
<path d="M154.723 215.52C160.595 217.67 168.201 219.875 177.245 221.1C186.397 222.339 194.399 222.221 200.675 221.693C191.778 229.454 182.881 237.216 173.984 244.978C167.564 235.159 161.143 225.34 154.723 215.52Z" fill="#532322" stroke="white" stroke-width="20" stroke-linejoin="round"/>
<path d="M192.783 152.465C197.105 150.56 202.961 148.106 210.041 145.508C213.836 144.116 216.801 143.116 220.035 142.028C224.81 140.421 231.04 138.395 238.438 136.175C239.051 138.224 239.952 142.234 239.067 147.162C238.291 151.486 236.483 154.616 235.316 156.328C230.093 155.217 224.38 154.243 218.222 153.543C208.884 152.481 200.329 152.251 192.784 152.466L192.783 152.465Z" fill="#532322" stroke="white" stroke-width="20" stroke-linejoin="round"/>
<path d="M120.396 135.799C117.571 120.941 115.867 102.808 117.73 82.4033C118.231 76.9132 118.951 71.6865 119.826 66.74C127.786 64.2808 137.25 61.9641 148.02 60.4696C156.664 59.2701 164.601 58.8146 171.621 58.7773C169.869 61.7295 166.906 66.2379 162.42 70.9684C149.436 84.6607 137.907 85.2339 129.589 93.2294C123.409 99.1704 117.398 110.752 120.397 135.799L120.396 135.799Z" fill="#CC5520" stroke="white" stroke-width="20" stroke-linejoin="round"/>
<path d="M226.745 116.487C220.282 114.321 209.353 109.673 199.161 99.6694C183.311 84.114 179.456 65.6351 178.381 58.8246C187.379 59.0691 198.052 60.0141 209.868 62.3885C222.879 65.0027 233.986 68.6892 242.931 72.3111C242.99 77.1529 242.545 83.4818 240.598 90.5852C237.2 102.984 230.894 111.659 226.745 116.486L226.745 116.487Z" fill="#CC5520" stroke="white" stroke-width="20" stroke-linejoin="round"/>
<path d="M249.931 74.9334C257.267 78.8433 264.603 82.7531 271.939 86.663C272.047 94.4831 271.51 103.904 269.486 114.376C266.145 131.663 260.01 145.316 254.772 154.765C256.396 151.442 269.052 124.561 255.749 103.686C253.843 100.695 251.022 97.2274 246.774 93.9485C247.381 91.8841 247.945 89.6539 248.427 87.2659C249.337 82.761 249.77 78.6046 249.931 74.9338L249.931 74.9334Z" fill="#CC5520" stroke="white" stroke-width="20" stroke-linejoin="round"/>
<path d="M234.239 62.6148C237.204 57.5925 241.899 50.8982 249.044 44.3732C257.575 36.5828 266.15 32.1828 272.034 29.7297C273.893 34.9883 275.845 42.3256 276.304 51.2294C276.937 63.5262 274.447 73.4766 272.346 79.6894C272.336 71.0102 267.555 63.0626 259.982 59.1803C251.675 54.922 241.407 56.2722 234.239 62.6148Z" fill="#CC5520" stroke="white" stroke-width="20" stroke-linejoin="round"/>
<path d="M121.16 59.0435C120.866 53.2953 121.09 45.1866 123.477 35.8788C126.372 24.5891 131.252 16.199 134.857 10.9987C139.351 14.5683 145.029 19.8542 150.315 27.2575C157.274 37.0034 160.693 46.4092 162.449 52.803C157.274 44.2487 147.319 39.9559 137.966 42.1051C129.737 43.9959 123.211 50.5878 121.161 59.0436L121.16 59.0435Z" fill="#CC5520" stroke="white" stroke-width="20" stroke-linejoin="round"/>
<path d="M147.528 204.534C138.827 184.062 130.126 163.59 121.425 143.118C125.849 153.644 131.603 159.813 135.775 163.388C161.684 185.584 204.716 174.655 227.046 168.959C238.306 166.087 247.105 162.766 252.217 160.689C238.447 178.161 224.677 195.633 210.907 213.106C203.527 214.599 192.26 215.989 178.745 214.197C164.978 212.372 154.303 207.963 147.528 204.534L147.528 204.534Z" fill="#EA9127" stroke="white" stroke-width="20" stroke-linejoin="round"/>
<path d="M178.383 58.829C179.195 62.7655 180.02 69.5217 178.08 77.4634C177.435 80.1042 176.105 86.1723 171.4 91.9459C167.715 96.4685 165.088 97.778 158.693 102.896C155 105.852 149.917 110.259 144.299 116.346C149.671 119.073 156.018 121.692 163.312 123.658C188.02 130.32 209.64 125.742 221.479 122.139C223.235 120.256 224.99 118.374 226.747 116.49C216.638 109.47 203.353 98.3714 191.587 81.7657C185.831 73.6419 181.565 65.7895 178.383 58.8287L178.383 58.829Z" fill="#EA9127" stroke="white" stroke-width="20" stroke-linejoin="round"/>
<path d="M134.958 11.0089C132.952 13.7758 130.834 17.1129 128.875 21.036C125.696 27.4006 123.933 33.3138 122.918 38.0409C123.317 36.6518 125.439 29.7866 131.866 26.8026C139.196 23.4003 149.23 26.3891 155.222 34.7805C152.385 29.8642 148.421 24.1012 142.919 18.3448C140.207 15.5066 137.51 13.0778 134.958 11.0089L134.958 11.0089Z" fill="#903518" stroke="white" stroke-width="20" stroke-linejoin="round"/>
<path d="M272.033 29.7296C273.27 32.8861 274.478 36.6856 275.332 41.0616C276.736 48.2623 276.702 54.5659 276.287 59.3219C276.307 58.0763 276.31 50.3507 270.56 45.529C264.374 40.3419 254.007 40.5892 246.224 47.0468C249.986 43.2677 255.076 38.9029 261.673 34.9475C265.34 32.7492 268.849 31.0507 272.033 29.7296L272.033 29.7296Z" fill="#903518" stroke="white" stroke-width="20" stroke-linejoin="round"/>
<path d="M210.906 213.107C221.24 199.995 231.574 186.882 241.908 173.77C233.133 181.639 215.431 195.312 189.257 201.736C172.283 205.903 157.567 205.592 147.527 204.535C154.731 208.162 166.264 212.864 181.142 214.465C193.391 215.784 203.709 214.55 210.906 213.107Z" fill="#CC5520" stroke="white" stroke-width="20" stroke-linejoin="round"/>
<path d="M133.855 10.9985C130.177 16.3081 125.18 24.9236 122.311 36.5271C120.089 45.5153 119.868 53.3659 120.158 59.0433C126.132 57.5377 132.711 56.1517 139.841 55.0461C147.598 53.8436 154.841 53.1539 161.446 52.8027C159.902 47.1591 157.154 39.5135 152.069 31.378C145.947 21.5826 138.892 15.0013 133.855 10.9984L133.855 10.9985Z" fill="#EA9127"/>
<path d="M271.034 29.7297C265.505 32.03 257.614 36.0471 249.601 42.9879C241.454 50.0441 236.305 57.4159 233.239 62.6148C239.299 64.6565 245.853 67.1633 252.751 70.2561C259.612 73.3322 265.814 76.5407 271.346 79.6897C273.261 74.0665 275.512 65.3025 275.406 54.4206C275.304 43.8037 272.997 35.2655 271.034 29.7297L271.034 29.7297Z" fill="#EA9127"/>
<path d="M118.995 66.8441C117.19 75.9797 115.716 87.3248 115.719 100.365C115.721 114.265 117.401 126.277 119.398 135.8C129.086 118.075 139.934 107.477 148.469 100.945C156.254 94.9869 164.662 90.4619 168.957 80.1784C172.255 72.2797 171.7 64.4016 170.622 58.7774C163.898 58.7973 156.333 59.2121 148.117 60.3183C136.93 61.8247 127.147 64.2608 118.995 66.8441Z" fill="#E39334"/>
<path d="M177.384 58.8245C178.078 62.4525 178.752 68.4106 177.369 75.5179C176.842 78.226 175.62 84.2036 171.541 90.3372C166.388 98.0877 161.712 98.5092 150.026 109.529C147.028 112.356 144.721 114.794 143.299 116.343C157.766 125.526 172.233 134.709 186.7 143.892C194.471 140.72 230.214 125.213 239.665 90.5363C241.03 85.5306 242.034 79.4364 241.933 72.3117C232.58 68.5257 220.911 64.6864 207.213 62.0631C196.114 59.938 186.029 59.0602 177.383 58.8252L177.384 58.8245Z" fill="#F6D365"/>
<path d="M270.943 86.6631C271.029 91.8399 270.823 97.413 270.181 103.316C267.819 125.022 260.504 142.481 253.775 154.765C253.854 153.741 254.555 141.835 244.841 134.025C235.575 126.575 224.725 129.197 223.563 129.5C228.217 125.241 234.392 118.571 239.534 109.091C247.051 95.2326 248.615 82.2671 248.934 74.9338C256.271 78.8437 263.607 82.7535 270.943 86.6634L270.943 86.6631Z" fill="#EA9127"/>
<path d="M120.425 143.118C129.126 163.59 137.827 184.062 146.528 204.534C153.216 207.918 163.533 212.173 176.77 214.065C190.735 216.06 202.377 214.629 209.907 213.106C223.695 195.618 237.483 178.131 251.271 160.643C247.288 161.301 242.085 161.964 235.97 162.221C230.811 162.437 224.525 162.384 216.354 161.523C200.1 159.812 199.492 157.338 184.389 155.306C170.794 153.478 170.533 155.38 155.115 153.059C145.933 151.677 139.086 149.958 132.991 147.971C127.838 146.29 123.58 144.535 120.425 143.118L120.425 143.118Z" fill="#F6D365"/>
<path d="M178.781 150.654C175.132 147.655 170.154 143.713 164.036 139.303C160.757 136.94 158.171 135.178 155.35 133.258C151.185 130.425 145.732 126.795 139.206 122.663C138.063 124.472 136.115 128.091 135.639 133.075C135.221 137.447 136.118 140.949 136.782 142.913C142.111 143.25 147.875 143.852 153.994 144.837C163.272 146.33 171.573 148.414 178.781 150.654L178.781 150.654Z" fill="#532322"/>
<path d="M191.954 152.448C199.857 148.945 208.488 145.49 217.825 142.261C224.551 139.935 231.049 137.932 237.266 136.203C237.891 138.252 238.877 142.493 237.785 147.659C236.932 151.693 235.167 154.612 233.988 156.258C228.751 155.121 222.984 154.125 216.738 153.424C207.612 152.4 199.272 152.207 191.954 152.448Z" fill="#532322"/>
<path d="M153.723 215.52C159.595 217.67 167.201 219.875 176.245 221.1C185.397 222.339 193.399 222.221 199.675 221.693C190.778 229.454 181.881 237.216 172.984 244.978C166.564 235.159 160.143 225.34 153.723 215.52Z" fill="#532322"/>
<path d="M191.783 152.465C196.105 150.56 201.961 148.106 209.041 145.508C212.836 144.116 215.801 143.116 219.035 142.028C223.81 140.421 230.04 138.395 237.438 136.175C238.051 138.224 238.952 142.234 238.067 147.162C237.291 151.486 235.483 154.616 234.316 156.328C229.093 155.217 223.38 154.243 217.222 153.543C207.884 152.481 199.329 152.251 191.784 152.466L191.783 152.465Z" fill="#532322"/>
<path d="M119.396 135.799C116.571 120.941 114.867 102.808 116.73 82.4033C117.231 76.9132 117.951 71.6865 118.826 66.74C126.786 64.2808 136.25 61.9641 147.02 60.4696C155.664 59.2701 163.601 58.8146 170.621 58.7773C168.869 61.7295 165.906 66.2379 161.42 70.9684C148.436 84.6607 136.907 85.2339 128.589 93.2294C122.409 99.1704 116.398 110.752 119.397 135.799L119.396 135.799Z" fill="#CC5520"/>
<path d="M225.745 116.487C219.282 114.321 208.353 109.673 198.161 99.6694C182.311 84.114 178.456 65.6351 177.381 58.8246C186.379 59.0691 197.052 60.0141 208.868 62.3885C221.879 65.0027 232.986 68.6892 241.931 72.3111C241.99 77.1529 241.545 83.4818 239.598 90.5852C236.2 102.984 229.894 111.659 225.745 116.486L225.745 116.487Z" fill="#CC5520"/>
<path d="M248.931 74.9334C256.267 78.8433 263.603 82.7531 270.939 86.663C271.047 94.4831 270.51 103.904 268.486 114.376C265.145 131.663 259.01 145.316 253.772 154.765C255.396 151.442 268.052 124.561 254.749 103.686C252.843 100.695 250.022 97.2274 245.774 93.9485C246.381 91.8841 246.945 89.6539 247.427 87.2659C248.337 82.761 248.77 78.6046 248.931 74.9338L248.931 74.9334Z" fill="#CC5520"/>
<path d="M233.239 62.6148C236.204 57.5925 240.899 50.8982 248.044 44.3732C256.575 36.5828 265.15 32.1828 271.034 29.7297C272.893 34.9883 274.845 42.3256 275.304 51.2294C275.937 63.5262 273.447 73.4766 271.346 79.6894C271.336 71.0102 266.555 63.0626 258.982 59.1803C250.675 54.922 240.407 56.2722 233.239 62.6148Z" fill="#CC5520"/>
<path d="M120.16 59.0435C119.866 53.2953 120.09 45.1866 122.477 35.8788C125.372 24.5891 130.252 16.199 133.857 10.9987C138.351 14.5683 144.029 19.8542 149.315 27.2575C156.274 37.0034 159.693 46.4092 161.449 52.803C156.274 44.2487 146.319 39.9559 136.966 42.1051C128.737 43.9959 122.211 50.5878 120.161 59.0436L120.16 59.0435Z" fill="#CC5520"/>
<path d="M146.528 204.534C137.827 184.062 129.126 163.59 120.425 143.118C124.849 153.644 130.603 159.813 134.775 163.388C160.684 185.584 203.716 174.655 226.046 168.959C237.306 166.087 246.105 162.766 251.217 160.689C237.447 178.161 223.677 195.633 209.907 213.106C202.527 214.599 191.26 215.989 177.745 214.197C163.978 212.372 153.303 207.963 146.528 204.534L146.528 204.534Z" fill="#EA9127"/>
<path d="M177.383 58.829C178.195 62.7655 179.02 69.5217 177.08 77.4634C176.435 80.1042 175.105 86.1723 170.4 91.9459C166.715 96.4685 164.088 97.778 157.693 102.896C154 105.852 148.917 110.259 143.299 116.346C148.671 119.073 155.018 121.692 162.312 123.658C187.02 130.32 208.64 125.742 220.479 122.139C222.235 120.256 223.99 118.374 225.747 116.49C215.638 109.47 202.353 98.3714 190.587 81.7657C184.831 73.6419 180.565 65.7895 177.383 58.8287L177.383 58.829Z" fill="#EA9127"/>
<path d="M133.958 11.0089C131.952 13.7758 129.834 17.1129 127.875 21.036C124.696 27.4006 122.933 33.3138 121.918 38.0409C122.317 36.6518 124.439 29.7866 130.866 26.8026C138.196 23.4003 148.23 26.3891 154.222 34.7805C151.385 29.8642 147.421 24.1012 141.919 18.3448C139.207 15.5066 136.51 13.0778 133.958 11.0089L133.958 11.0089Z" fill="#903518"/>
<path d="M271.033 29.7296C272.27 32.8861 273.478 36.6856 274.332 41.0616C275.736 48.2623 275.702 54.5659 275.287 59.3219C275.307 58.0763 275.31 50.3507 269.56 45.529C263.374 40.3419 253.007 40.5892 245.224 47.0468C248.986 43.2677 254.076 38.9029 260.673 34.9475C264.34 32.7492 267.849 31.0507 271.033 29.7296L271.033 29.7296Z" fill="#903518"/>
<path d="M209.906 213.107C220.24 199.995 230.574 186.882 240.908 173.77C232.133 181.639 214.431 195.312 188.257 201.736C171.283 205.903 156.567 205.592 146.527 204.535C153.731 208.162 165.264 212.864 180.142 214.465C192.391 215.784 202.709 214.55 209.906 213.107Z" fill="#CC5520"/>
<path d="M15 212.5C18.9344 212.5 22.1182 209.955 24.1911 206.639C26.286 203.287 27.5 198.812 27.5 194C27.5 189.188 26.286 184.713 24.1911 181.361C22.1182 178.045 18.9344 175.5 15 175.5C11.0656 175.5 7.88183 178.045 5.80894 181.361C3.71402 184.713 2.5 189.188 2.5 194C2.5 198.812 3.71402 203.287 5.80894 206.639C7.88183 209.955 11.0656 212.5 15 212.5Z" fill="#CC5520" stroke="white" stroke-width="5"/>
<path d="M296.415 215.845C300.284 215.131 302.954 212.051 304.391 208.414C305.843 204.737 306.225 200.116 305.352 195.384C304.48 190.652 302.474 186.472 299.806 183.555C297.166 180.67 293.574 178.745 289.704 179.458C285.835 180.172 283.166 183.252 281.729 186.889C280.277 190.566 279.894 195.186 280.767 199.919C281.64 204.651 283.645 208.831 286.313 211.748C288.953 214.633 292.546 216.558 296.415 215.845Z" fill="#CC5520" stroke="white" stroke-width="5"/>
<path d="M55 212.5C58.9344 212.5 62.1182 209.955 64.1911 206.639C66.286 203.287 67.5 198.812 67.5 194C67.5 189.188 66.286 184.713 64.1911 181.361C62.1182 178.045 58.9344 175.5 55 175.5C51.0656 175.5 47.8818 178.045 45.8089 181.361C43.714 184.713 42.5 189.188 42.5 194C42.5 198.812 43.714 203.287 45.8089 206.639C47.8818 209.955 51.0656 212.5 55 212.5Z" fill="#CC5520" stroke="white" stroke-width="5"/>
<path d="M335.751 208.591C339.621 207.877 342.29 204.797 343.727 201.16C345.179 197.484 345.562 192.863 344.689 188.131C343.816 183.398 341.811 179.218 339.143 176.302C336.503 173.416 332.91 171.491 329.041 172.204C325.172 172.918 322.502 175.998 321.065 179.635C319.613 183.312 319.231 187.933 320.103 192.665C320.976 197.397 322.982 201.577 325.65 204.494C328.29 207.379 331.882 209.304 335.751 208.591Z" fill="#CC5520" stroke="white" stroke-width="5"/>
<path d="M35 215.5C38.9344 215.5 42.1182 212.955 44.1911 209.639C46.286 206.287 47.5 201.812 47.5 197C47.5 192.188 46.286 187.713 44.1911 184.361C42.1182 181.045 38.9344 178.5 35 178.5C31.0656 178.5 27.8818 181.045 25.8089 184.361C23.714 187.713 22.5 192.188 22.5 197C22.5 201.812 23.714 206.287 25.8089 209.639C27.8818 212.955 31.0656 215.5 35 215.5Z" fill="#EA9127" stroke="white" stroke-width="5"/>
<path d="M316.627 215.169C320.497 214.455 323.166 211.375 324.603 207.738C326.055 204.062 326.438 199.441 325.565 194.709C324.692 189.977 322.687 185.796 320.019 182.88C317.379 179.994 313.786 178.069 309.917 178.782C306.048 179.496 303.378 182.576 301.941 186.214C300.489 189.89 300.107 194.511 300.979 199.243C301.852 203.975 303.858 208.155 306.526 211.072C309.166 213.957 312.758 215.882 316.627 215.169Z" fill="#EA9127" stroke="white" stroke-width="5"/>
</svg>
