<svg width="186" height="112" viewBox="0 0 186 112" fill="none" xmlns="http://www.w3.org/2000/svg">
<path d="M33.8553 10.9985C30.1775 16.3081 25.1805 24.9236 22.3113 36.5271C20.089 45.5153 19.8681 53.3659 20.1584 59.0433C26.1317 57.5377 32.7106 56.1517 39.8414 55.0461C47.598 53.8436 54.8408 53.1539 61.4463 52.8027C59.9026 47.1591 57.1537 39.5135 52.0688 31.378C45.9473 21.5826 38.8926 15.0013 33.855 10.9984L33.8553 10.9985Z" fill="#EA9127" stroke="white" stroke-width="20" stroke-linejoin="round"/>
<path d="M171.034 29.7297C165.505 32.03 157.614 36.0471 149.601 42.9879C141.454 50.0441 136.305 57.4159 133.239 62.6148C139.299 64.6565 145.853 67.1633 152.751 70.2561C159.612 73.3322 165.814 76.5407 171.346 79.6897C173.261 74.0665 175.512 65.3025 175.407 54.4206C175.304 43.8037 172.997 35.2655 171.034 29.7297L171.034 29.7297Z" fill="#EA9127" stroke="white" stroke-width="20" stroke-linejoin="round"/>
<path d="M18.9948 66.8441C17.1904 75.9797 15.716 87.3248 15.719 100.365C15.7214 114.265 17.4012 126.277 19.3978 135.8C29.0863 118.075 39.9346 107.477 48.4696 100.945C56.2546 94.9869 64.6624 90.4619 68.9567 80.1784C72.255 72.2797 71.6998 64.4016 70.6222 58.7774C63.8979 58.7973 56.3334 59.2121 48.1175 60.3183C36.9299 61.8247 27.1471 64.2608 18.9948 66.8441Z" fill="#E39334" stroke="white" stroke-width="20" stroke-linejoin="round"/>
<path d="M77.3838 58.8245C78.0779 62.4525 78.7519 68.4106 77.369 75.5179C76.8424 78.226 75.6205 84.2036 71.5414 90.3372C66.3877 98.0877 61.7117 98.5092 50.0261 109.529C47.0284 112.356 44.7214 114.794 43.2996 116.343C57.7666 125.526 72.2333 134.709 86.7004 143.892C94.4715 140.72 130.215 125.213 139.665 90.5363C141.03 85.5306 142.034 79.4364 141.933 72.3117C132.581 68.5257 120.911 64.6864 107.213 62.0631C96.1144 59.938 86.0287 59.0602 77.3834 58.8252L77.3838 58.8245Z" fill="#F6D365" stroke="white" stroke-width="20" stroke-linejoin="round"/>
<path d="M170.943 86.6631C171.029 91.8399 170.823 97.413 170.181 103.316C167.819 125.022 160.504 142.481 153.776 154.765C153.854 153.741 154.555 141.835 144.842 134.025C135.576 126.575 124.726 129.197 123.563 129.5C128.217 125.241 134.392 118.571 139.534 109.091C147.051 95.2326 148.615 82.2671 148.935 74.9338C156.271 78.8437 163.607 82.7535 170.943 86.6634L170.943 86.6631Z" fill="#EA9127" stroke="white" stroke-width="20" stroke-linejoin="round"/>
<path d="M78.7807 150.654C75.1324 147.655 70.1546 143.713 64.0366 139.303C60.7576 136.94 58.1708 135.178 55.3501 133.258C51.1849 130.425 45.732 126.795 39.2058 122.663C38.0632 124.472 36.1155 128.091 35.639 133.075C35.221 137.447 36.1186 140.949 36.782 142.913C42.1107 143.25 47.8747 143.852 53.9938 144.837C63.2725 146.33 71.5733 148.414 78.781 150.654L78.7807 150.654Z" fill="#532322" stroke="white" stroke-width="20" stroke-linejoin="round"/>
<path d="M19.3965 135.799C16.5713 120.941 14.8675 102.808 16.73 82.4033C17.2311 76.9132 17.9515 71.6865 18.8256 66.74C26.7856 64.2808 36.2505 61.9641 47.0201 60.4696C55.6637 59.2701 63.6012 58.8146 70.6212 58.7773C68.8693 61.7295 65.9062 66.2379 61.4201 70.9684C48.4365 84.6607 36.907 85.2339 28.5893 93.2294C22.4095 99.1704 16.3982 110.752 19.3968 135.799L19.3965 135.799Z" fill="#CC5520" stroke="white" stroke-width="20" stroke-linejoin="round"/>
<path d="M125.745 116.487C119.282 114.321 108.353 109.673 98.1608 99.6694C82.3115 84.114 78.4563 65.6351 77.3811 58.8246C86.3794 59.0691 97.0521 60.0141 108.869 62.3885C121.879 65.0027 132.986 68.6892 141.931 72.3111C141.99 77.1529 141.545 83.4818 139.598 90.5852C136.2 102.984 129.895 111.659 125.745 116.486L125.745 116.487Z" fill="#CC5520" stroke="white" stroke-width="20" stroke-linejoin="round"/>
<path d="M148.931 74.9334C156.267 78.8433 163.603 82.7531 170.939 86.663C171.048 94.4831 170.51 103.904 168.486 114.376C165.146 131.663 159.011 145.316 153.772 154.765C155.396 151.442 168.052 124.561 154.749 103.686C152.843 100.695 150.022 97.2274 145.775 93.9485C146.381 91.8841 146.945 89.6539 147.428 87.2659C148.337 82.761 148.77 78.6046 148.931 74.9338L148.931 74.9334Z" fill="#CC5520" stroke="white" stroke-width="20" stroke-linejoin="round"/>
<path d="M133.239 62.6148C136.204 57.5925 140.899 50.8982 148.044 44.3732C156.575 36.5828 165.15 32.1828 171.034 29.7297C172.893 34.9883 174.845 42.3256 175.304 51.2294C175.937 63.5262 173.447 73.4766 171.346 79.6894C171.336 71.0102 166.555 63.0626 158.982 59.1803C150.675 54.922 140.408 56.2722 133.239 62.6148Z" fill="#CC5520" stroke="white" stroke-width="20" stroke-linejoin="round"/>
<path d="M20.1605 59.0435C19.8664 53.2953 20.0903 45.1866 22.477 35.8788C25.3717 24.5891 30.2525 16.199 33.8573 10.9987C38.3514 14.5683 44.0287 19.8542 49.315 27.2575C56.2739 37.0034 59.693 46.4092 61.4486 52.803C56.2737 44.2487 46.3192 39.9559 36.9657 42.1051C28.7369 43.9959 22.2107 50.5878 20.1608 59.0436L20.1605 59.0435Z" fill="#CC5520" stroke="white" stroke-width="20" stroke-linejoin="round"/>
<path d="M77.3826 58.829C78.1947 62.7655 79.0205 69.5217 77.0799 77.4634C76.4346 80.1042 75.1046 86.1723 70.4003 91.9459C66.7151 96.4685 64.0881 97.778 57.693 102.896C54.0004 105.852 48.9175 110.259 43.2992 116.346C48.6708 119.073 55.0179 121.692 62.3124 123.658C87.0199 130.32 108.64 125.742 120.479 122.139C122.235 120.256 123.99 118.374 125.747 116.49C115.638 109.47 102.353 98.3714 90.5875 81.7657C84.8311 73.6419 80.5649 65.7895 77.383 58.8287L77.3826 58.829Z" fill="#EA9127" stroke="white" stroke-width="20" stroke-linejoin="round"/>
<path d="M33.9586 11.0089C31.9522 13.7758 29.8338 17.1129 27.8749 21.036C24.6962 27.4006 22.9335 33.3138 21.918 38.0409C22.3174 36.6518 24.4389 29.7866 30.8666 26.8026C38.196 23.4003 48.2301 26.3891 54.2217 34.7805C51.3847 29.8642 47.4213 24.1012 41.9191 18.3448C39.2067 15.5066 36.5102 13.0778 33.9582 11.0089L33.9586 11.0089Z" fill="#903518" stroke="white" stroke-width="20" stroke-linejoin="round"/>
<path d="M171.033 29.7296C172.27 32.8861 173.478 36.6856 174.332 41.0616C175.736 48.2623 175.702 54.5659 175.287 59.3219C175.307 58.0763 175.31 50.3507 169.56 45.529C163.374 40.3419 153.007 40.5892 145.224 47.0468C148.986 43.2677 154.076 38.9029 160.673 34.9475C164.34 32.7492 167.849 31.0507 171.033 29.7296L171.033 29.7296Z" fill="#903518" stroke="white" stroke-width="20" stroke-linejoin="round"/>
<path d="M32.8553 10.9985C29.1775 16.3081 24.1805 24.9236 21.3113 36.5271C19.089 45.5153 18.8681 53.3659 19.1584 59.0433C25.1317 57.5377 31.7106 56.1517 38.8414 55.0461C46.598 53.8436 53.8408 53.1539 60.4463 52.8027C58.9026 47.1591 56.1537 39.5135 51.0688 31.378C44.9473 21.5826 37.8926 15.0013 32.855 10.9984L32.8553 10.9985Z" fill="#EA9127"/>
<path d="M170.034 29.7297C164.505 32.03 156.614 36.0471 148.601 42.9879C140.454 50.0441 135.305 57.4159 132.239 62.6148C138.299 64.6565 144.853 67.1633 151.751 70.2561C158.612 73.3322 164.814 76.5407 170.346 79.6897C172.261 74.0665 174.512 65.3025 174.407 54.4206C174.304 43.8037 171.997 35.2655 170.034 29.7297L170.034 29.7297Z" fill="#EA9127"/>
<path d="M17.9948 66.8441C16.1904 75.9797 14.716 87.3248 14.719 100.365C14.7214 114.265 16.4012 126.277 18.3978 135.8C28.0863 118.075 38.9346 107.477 47.4696 100.945C55.2546 94.9869 63.6624 90.4619 67.9567 80.1784C71.255 72.2797 70.6998 64.4016 69.6222 58.7774C62.8979 58.7973 55.3334 59.2121 47.1175 60.3183C35.9299 61.8247 26.1471 64.2608 17.9948 66.8441Z" fill="#E39334"/>
<path d="M76.3838 58.8245C77.0779 62.4525 77.7519 68.4106 76.369 75.5179C75.8424 78.226 74.6205 84.2036 70.5414 90.3372C65.3877 98.0877 60.7117 98.5092 49.0261 109.529C46.0284 112.356 43.7214 114.794 42.2996 116.343C56.7666 125.526 71.2333 134.709 85.7004 143.892C93.4715 140.72 129.215 125.213 138.665 90.5363C140.03 85.5306 141.034 79.4364 140.933 72.3117C131.581 68.5257 119.911 64.6864 106.213 62.0631C95.1144 59.938 85.0287 59.0602 76.3834 58.8252L76.3838 58.8245Z" fill="#F6D365"/>
<path d="M169.943 86.6631C170.029 91.8399 169.823 97.413 169.181 103.316C166.819 125.022 159.504 142.481 152.776 154.765C152.854 153.741 153.555 141.835 143.842 134.025C134.576 126.575 123.726 129.197 122.563 129.5C127.217 125.241 133.392 118.571 138.534 109.091C146.051 95.2326 147.615 82.2671 147.935 74.9338C155.271 78.8437 162.607 82.7535 169.943 86.6634L169.943 86.6631Z" fill="#EA9127"/>
<path d="M18.3965 135.799C15.5713 120.941 13.8675 102.808 15.73 82.4033C16.2311 76.9132 16.9515 71.6865 17.8256 66.74C25.7856 64.2808 35.2505 61.9641 46.0201 60.4696C54.6637 59.2701 62.6012 58.8146 69.6212 58.7773C67.8693 61.7295 64.9062 66.2379 60.4201 70.9684C47.4365 84.6607 35.907 85.2339 27.5893 93.2294C21.4095 99.1704 15.3982 110.752 18.3968 135.799L18.3965 135.799Z" fill="#CC5520"/>
<path d="M124.745 116.487C118.282 114.321 107.353 109.673 97.1608 99.6694C81.3115 84.114 77.4563 65.6351 76.3811 58.8246C85.3794 59.0691 96.0521 60.0141 107.869 62.3885C120.879 65.0027 131.986 68.6892 140.931 72.3111C140.99 77.1529 140.545 83.4818 138.598 90.5852C135.2 102.984 128.895 111.659 124.745 116.486L124.745 116.487Z" fill="#CC5520"/>
<path d="M147.931 74.9334C155.267 78.8433 162.603 82.7531 169.939 86.663C170.048 94.4831 169.51 103.904 167.486 114.376C164.146 131.663 158.011 145.316 152.772 154.765C154.396 151.442 167.052 124.561 153.749 103.686C151.843 100.695 149.022 97.2274 144.775 93.9485C145.381 91.8841 145.945 89.6539 146.428 87.2659C147.337 82.761 147.77 78.6046 147.931 74.9338L147.931 74.9334Z" fill="#CC5520"/>
<path d="M132.239 62.6148C135.204 57.5925 139.899 50.8982 147.044 44.3732C155.575 36.5828 164.15 32.1828 170.034 29.7297C171.893 34.9883 173.845 42.3256 174.304 51.2294C174.937 63.5262 172.447 73.4766 170.346 79.6894C170.336 71.0102 165.555 63.0626 157.982 59.1803C149.675 54.922 139.408 56.2722 132.239 62.6148Z" fill="#CC5520"/>
<path d="M19.1605 59.0435C18.8664 53.2953 19.0903 45.1866 21.477 35.8788C24.3717 24.5891 29.2525 16.199 32.8573 10.9987C37.3514 14.5683 43.0287 19.8542 48.315 27.2575C55.2739 37.0034 58.693 46.4092 60.4486 52.803C55.2737 44.2487 45.3192 39.9559 35.9657 42.1051C27.7369 43.9959 21.2107 50.5878 19.1608 59.0436L19.1605 59.0435Z" fill="#CC5520"/>
<path d="M76.3826 58.829C77.1947 62.7655 78.0205 69.5217 76.0799 77.4634C75.4346 80.1042 74.1046 86.1723 69.4003 91.9459C65.7151 96.4685 63.0881 97.778 56.693 102.896C53.0004 105.852 47.9175 110.259 42.2992 116.346C47.6708 119.073 54.0179 121.692 61.3124 123.658C86.0199 130.32 107.64 125.742 119.479 122.139C121.235 120.256 122.99 118.374 124.747 116.49C114.638 109.47 101.353 98.3714 89.5875 81.7657C83.8311 73.6419 79.5649 65.7895 76.383 58.8287L76.3826 58.829Z" fill="#EA9127"/>
<path d="M32.9586 11.0089C30.9522 13.7758 28.8338 17.1129 26.8749 21.036C23.6962 27.4006 21.9335 33.3138 20.918 38.0409C21.3174 36.6518 23.4389 29.7866 29.8666 26.8026C37.196 23.4003 47.2301 26.3891 53.2217 34.7805C50.3847 29.8642 46.4213 24.1012 40.9191 18.3448C38.2067 15.5066 35.5102 13.0778 32.9582 11.0089L32.9586 11.0089Z" fill="#903518"/>
<path d="M170.033 29.7296C171.27 32.8861 172.478 36.6856 173.332 41.0616C174.736 48.2623 174.702 54.5659 174.287 59.3219C174.307 58.0763 174.31 50.3507 168.56 45.529C162.374 40.3419 152.007 40.5892 144.224 47.0468C147.986 43.2677 153.076 38.9029 159.673 34.9475C163.34 32.7492 166.849 31.0507 170.033 29.7296L170.033 29.7296Z" fill="#903518"/>
</svg>
