<svg width="407" height="465" viewBox="0 0 407 465" fill="none" xmlns="http://www.w3.org/2000/svg">
<path d="M62.7594 64.1019C65.6174 65.4261 67.1147 68.6088 66.3126 71.6548C61.8163 88.7296 58.5752 112.573 64.9372 138.99L58.6179 140.512L64.9372 138.99C75.0642 181.042 104.756 209.643 133.385 228.127C161.983 246.592 188.804 254.481 191.749 255.304C195.075 256.233 197.094 259.6 196.346 262.971C195.598 266.343 192.345 268.541 188.938 267.977C181.717 266.781 171.749 265.506 159.782 265.15L159.781 265.15L159.77 265.15L159.724 265.148L159.534 265.143C159.42 265.14 159.269 265.136 159.085 265.132C158.996 265.13 158.9 265.128 158.796 265.125C158.156 265.111 157.24 265.094 156.144 265.08C153.944 265.053 151.054 265.044 148.231 265.112L62.7594 64.1019ZM62.7594 64.1019C59.9015 62.7777 56.5054 63.6932 54.7002 66.2745M62.7594 64.1019L54.7002 66.2745M54.7002 66.2745C41.37 85.3355 21.6377 118.776 12.0619 164.704C4.05321 203.115 6.17307 235.756 9.28838 257.114C9.54215 258.854 10.49 260.417 11.9156 261.446M54.7002 66.2745L11.9156 261.446M11.9156 261.446C33.4652 277.004 51.4286 280.369 63.9048 280.496M11.9156 261.446L63.9048 280.496M63.9048 280.496C78.0175 280.639 92.8443 276.682 106.861 272.942M63.9048 280.496L106.861 272.942M106.861 272.942L106.872 272.939M106.861 272.942L106.872 272.939M106.872 272.939L106.994 272.906M106.872 272.939L106.994 272.906M106.994 272.906C121.343 269.077 135.017 265.428 148.231 265.112L106.994 272.906Z" fill="#EA9127" stroke="white" stroke-width="13" stroke-linejoin="round"/>
<path d="M54.2999 362.983C109.275 435.443 190.472 451.01 211.685 454.421C213.762 454.755 215.872 454.064 217.349 452.565C218.825 451.066 219.484 448.945 219.118 446.874C215.713 427.588 212.987 399.989 216.897 367.279C220.825 334.408 230.053 308.104 237.952 290.11C239.332 286.967 238.03 283.294 234.98 281.72C197.303 262.289 167.425 260.114 146.569 262.093L146.569 262.093C132.701 263.408 119.913 266.9 108.077 270.132C103.592 271.357 99.2425 272.544 95.0234 273.562C79.3603 277.34 64.152 279.253 46.1329 274.387L46.1328 274.387C35.6273 271.55 27.5401 267.319 22.4237 264.249C20.4563 263.029 17.9441 262.932 15.8563 264.086C13.3532 265.469 12.0482 268.326 12.6417 271.124C17.4379 293.735 28.1787 328.555 54.2999 362.983ZM54.2999 362.983L59.4782 359.054M54.2999 362.983L59.4782 359.054M59.4782 359.054C37.2171 329.714 26.4478 300.061 20.9886 278.357L25.3587 268.426C25.7313 270.183 26.1416 272.016 26.5945 273.92C31.4375 276.303 37.4329 278.771 44.4383 280.662C69.4706 287.422 89.4329 281.97 110.313 276.268C121.97 273.084 133.912 269.822 147.182 268.564C166.877 266.696 195.498 268.671 232 287.497C223.913 305.92 214.465 332.852 210.443 366.508C206.877 396.341 208.702 422.021 211.608 441.232C212.378 441.363 213.093 441.481 213.749 441.586L212.717 448.004L206.316 449.134C206.182 448.373 206.048 447.599 205.916 446.813C178.172 441.545 108.168 423.23 59.4782 359.054Z" fill="#EA9127" stroke="white" stroke-width="13" stroke-linejoin="round"/>
<path d="M72.7914 368.19C70.2491 368.272 67.9881 369.829 67.0052 372.175C66.0224 374.522 66.4983 377.225 68.2231 379.095C73.6228 384.947 79.5566 390.78 86.0781 396.482L86.0783 396.482C128.719 433.761 176.917 448.322 211.573 454.403C213.643 454.766 215.76 454.106 217.257 452.631C218.754 451.157 219.446 449.05 219.115 446.975C213.956 414.699 211.775 369.425 226.611 319.623L226.611 319.623C229.945 308.428 233.818 298.087 237.958 288.6C239.3 285.526 238.081 281.935 235.145 280.312C232.209 278.689 228.521 279.566 226.63 282.338C215.292 298.962 187.562 334.524 138.327 354.444L138.327 354.445C112.69 364.817 89.3683 367.657 72.7914 368.19Z" fill="#903518" stroke="white" stroke-width="13" stroke-linejoin="round"/>
<path d="M63.7814 65.4418C62.4173 64.0549 60.5038 63.3518 58.5662 63.5257C56.6286 63.6995 54.8708 64.7321 53.7754 66.3398C43.8329 80.9329 32.5823 100.488 23.5231 124.942C9.98416 161.488 6.83018 194.154 6.50071 216.515C6.46145 219.179 8.05199 221.597 10.5138 222.616C12.9755 223.635 15.8099 223.049 17.6652 221.137C22.4572 216.198 27.2289 213.145 31.3638 211.184L31.3642 211.183C47.715 203.427 66.2694 207.083 82.0995 213.876C93.5628 218.795 102.867 225.054 107.622 228.536C108.992 229.616 110.172 230.509 111.12 231.215C113.956 233.325 117.959 232.781 120.13 229.991C122.301 227.201 121.844 223.187 119.101 220.957C118.602 220.551 117.368 219.566 115.51 218.199C102.292 207.739 70.7988 178.993 62.4798 131.701C58.012 106.304 61.8528 84.8574 65.421 71.7016C66.0257 69.4721 65.4017 67.0893 63.7819 65.4423L63.7814 65.4418Z" fill="#F6D365" stroke="white" stroke-width="13" stroke-linejoin="round"/>
<path d="M23.911 263.745C22.6764 262.321 20.8849 261.504 19.0007 261.504H19.0002C17.0508 261.504 15.2044 262.379 13.9698 263.887C12.7353 265.396 12.243 267.379 12.6287 269.29C15.811 285.057 21.7617 306.297 33.489 329.454L39.1885 326.568L33.489 329.455C44.8307 351.851 57.8549 368.693 68.343 380.351C69.6267 381.778 71.4752 382.565 73.3934 382.5C91.7167 381.885 125.639 378.271 162.402 358.566C203.747 336.406 227.075 305.478 237.434 289.697C239.168 287.055 238.751 283.549 236.445 281.387C234.139 279.226 230.613 279.037 228.089 280.939C220.286 286.818 161.476 329.429 92.1715 308.695C56.8742 298.135 34.3986 275.837 23.911 263.745Z" fill="#CC5520" stroke="white" stroke-width="13" stroke-linejoin="round"/>
<path d="M200.872 7.52074C208.761 12.4597 219.948 20.752 230.262 33.7163L200.872 7.52074ZM200.872 7.52074C199.844 6.86507 198.636 6.5 197.375 6.5H197.375C194.96 6.5 192.789 7.83155 191.668 9.88626C187.098 17.9472 181.11 30.8616 178.637 47.6988L178.637 47.699C176.714 60.7954 177.548 71.985 178.806 80.0072C179.105 81.9151 180.237 83.5912 181.895 84.5811C183.554 85.5711 185.566 85.7724 187.388 85.1305C195.202 82.3768 203.846 79.6993 213.269 77.3155C223.518 74.7226 233.148 72.8675 241.968 71.5387C243.927 71.2436 245.645 70.0713 246.633 68.3544C247.622 66.6375 247.773 64.5636 247.045 62.7213C243.971 54.9459 238.85 44.5102 230.262 33.7167L200.872 7.52074Z" fill="#EA9127" stroke="white" stroke-width="13" stroke-linejoin="round"/>
<path d="M384.015 12.4989C382.925 12.4989 381.853 12.7729 380.897 13.2956C373.239 17.4823 362.423 24.5303 351.857 35.8759C341.116 47.4083 334.755 58.9563 331.085 67.0142C330.277 68.789 330.308 70.8328 331.17 72.582C332.032 74.3312 333.634 75.6008 335.534 76.0406C343.888 77.9747 352.965 80.47 362.579 83.7107L362.579 83.7107C372.141 86.9338 380.842 90.4256 388.642 93.9285C390.418 94.7262 392.459 94.6855 394.202 93.8177C395.945 92.9499 397.207 91.3464 397.641 89.4482C399.591 80.9221 401.57 67.744 399.831 51.8073C398.135 36.258 393.555 24.082 389.907 16.2537C388.84 13.9633 386.542 12.4989 384.016 12.4989H384.015Z" fill="#EA9127" stroke="white" stroke-width="13" stroke-linejoin="round"/>
<path d="M178.718 135.59C180.662 154.389 184.668 170.405 188.764 183.008C189.599 185.579 191.939 187.364 194.639 187.492C197.339 187.619 199.836 186.063 200.91 183.582C211.145 159.948 223.737 145.316 233.757 136.14L233.757 136.14C235.221 134.799 236.799 133.441 238.435 132.033C246.565 125.035 256.131 116.801 260.345 103.277C264.264 90.6971 262.095 78.9557 259.694 71.0998C258.788 68.1324 255.91 66.2196 252.823 66.5321C243.525 67.4735 233.118 69.0623 221.906 71.6733C206.638 75.2287 193.443 79.8485 182.524 84.4451C180.323 85.3716 178.808 87.4303 178.576 89.807C177.351 102.408 176.892 117.953 178.718 135.59ZM178.718 135.59L185.183 134.921M178.718 135.59L185.183 134.921M185.183 134.921C183.41 117.784 183.856 102.68 185.046 90.4359C195.674 85.9617 208.518 81.4648 223.38 78.0039C234.294 75.4624 244.425 73.9155 253.478 72.999C255.693 80.2473 257.509 90.5267 254.139 101.343C250.53 112.927 242.644 119.759 234.574 126.75C232.833 128.259 231.084 129.774 229.367 131.346C220.085 139.846 208.841 152.671 199.045 172.209C199.729 174.572 200.427 176.834 201.127 178.99L194.946 180.999L188.981 178.416C190.002 176.057 191.047 173.779 192.111 171.578C189.206 161.095 186.617 148.787 185.183 134.921Z" fill="#E39334" stroke="white" stroke-width="13" stroke-linejoin="round"/>
<path d="M304.387 64.5129C288.981 63.1254 275.12 63.3108 263.301 64.1825C260.961 64.3109 258.84 65.699 257.803 67.8522L257.803 67.8532C257.079 69.3562 256.971 71.0548 257.452 72.6036C258.707 76.896 260.191 83.9361 259.406 92.5733L259.406 92.574C259.087 96.0806 258.348 103.252 254.348 110.905L254.348 110.905C251.936 115.52 249.555 118.015 245.745 121.558C245.248 122.02 244.728 122.498 244.186 122.997C240.406 126.477 235.51 130.983 229.105 138.459L229.105 138.459C225.365 142.824 222.522 146.551 220.774 148.915C219.637 150.452 219.234 152.413 219.674 154.274C220.114 156.136 221.351 157.709 223.057 158.575C238.426 166.38 253.796 174.186 269.165 181.992L284.53 189.795C286.427 190.758 288.675 190.733 290.549 189.726C295.728 186.944 310.177 178.848 324.404 165.151C338.625 151.46 352.971 131.833 357.24 105.997C358.471 98.5434 359.024 89.5908 357.859 79.3451C357.564 76.7516 355.746 74.5861 353.243 73.8461C339.944 69.9148 323.469 66.2317 304.387 64.5129L304.387 64.5129Z" fill="#F6D365" stroke="white" stroke-width="13" stroke-linejoin="round"/>
<path d="M399.2 94.1833C398.909 91.7115 397.261 89.7137 395.071 88.8734L363.572 75.9816C361.507 75.1363 359.152 75.4097 357.335 76.7058C355.518 78.0019 354.493 80.1395 354.621 82.3676C355.159 91.8097 354.824 108.593 346.988 127.265L346.987 127.265C341.627 140.038 334.577 149.362 329.158 155.415C327.165 157.64 326.946 160.937 328.626 163.407C330.306 165.876 333.453 166.883 336.255 165.847C337.46 165.402 349.211 161.369 360.11 168.444C371.515 175.848 372.163 189.079 372.189 190.153C372.262 193.213 374.461 195.808 377.467 196.382C380.474 196.956 383.474 195.355 384.67 192.537C392.395 174.34 400.248 148.714 400.494 117.768C400.562 109.354 400.059 101.467 399.2 94.1833Z" fill="#EA9127" stroke="white" stroke-width="13" stroke-linejoin="round"/>
<path d="M201.155 186.864C205.376 188.263 211.031 189.945 217.807 191.42L201.155 186.864ZM201.155 186.864C199.174 186.169 196.908 186.454 195.124 187.779C192.514 189.717 191.738 193.285 193.306 196.133C207.673 222.219 222.04 248.304 236.407 274.39C237.146 275.732 238.336 276.77 239.767 277.321C249.613 281.107 264.666 285.6 283.478 286.379H283.478C303.323 287.201 319.43 283.562 329.763 280.374C331.234 279.92 332.496 278.959 333.324 277.662C343.324 262.007 353.323 246.353 363.322 230.698C369.374 221.224 375.426 211.749 381.478 202.275C382.923 200.013 382.829 197.095 381.241 194.931C379.653 192.767 376.899 191.801 374.307 192.5C369.281 193.856 362.687 195.376 354.869 196.494L354.869 196.494C348.306 197.432 340.226 198.179 329.543 198.131C319.001 198.084 313.581 197.299 308.239 196.437C307.864 196.377 307.488 196.316 307.111 196.254C301.829 195.396 296.17 194.476 286.229 194.146L286.228 194.146C277.205 193.847 272.299 194.287 267.595 194.709C267.292 194.736 266.991 194.763 266.689 194.79C261.986 195.208 257.045 195.579 246.956 195.086L246.956 195.086C234.86 194.494 225.846 193.169 217.807 191.42L201.155 186.864Z" fill="#F6D365" stroke="white" stroke-width="13" stroke-linejoin="round"/>
<path d="M245.948 281.865C244.778 280.447 243.062 279.59 241.225 279.507C239.389 279.424 237.603 280.123 236.31 281.431L236.31 281.431C235.745 282.003 235.291 282.674 234.97 283.411C229.699 295.544 224.73 309.196 220.663 324.323C206.946 375.337 209.521 420.691 214.476 452.016C214.956 455.053 217.5 457.339 220.571 457.492C223.643 457.646 226.401 455.626 227.183 452.652C231.766 435.204 238.471 414.799 248.467 392.815L242.55 390.125L248.467 392.815C259.336 368.911 271.373 349.133 282.327 333.468C284 331.075 283.873 327.86 282.015 325.608C277.779 320.47 273.544 315.333 269.308 310.196C261.521 300.752 253.734 291.309 245.948 281.865Z" fill="#F6D365" stroke="white" stroke-width="13" stroke-linejoin="round"/>
<path d="M312.82 290.559C297.375 306.738 278.989 329.043 262.162 358.076C242.788 391.505 231.976 422.651 225.717 446.297C225.249 448.064 225.547 449.946 226.537 451.482C227.527 453.018 229.119 454.066 230.921 454.37C254.158 458.282 273.266 457.847 286.411 456.684C286.411 456.684 286.411 456.684 286.411 456.684L285.838 450.209M312.82 290.559L322.269 299.488C320.79 301.036 319.284 302.643 317.753 304.308C318.403 320.83 320.646 334.122 322.713 343.606C325.681 357.22 329.469 368.416 332.743 378.09C338.908 396.307 343.247 409.128 336.838 422.547C332.274 432.103 324.178 437.943 321.548 439.841L321.548 439.841C315.363 444.302 306.79 448.355 285.838 450.209M312.82 290.559C312.869 290.506 312.919 290.455 312.97 290.404C314.189 289.184 315.843 288.499 317.568 288.499H317.568C320.17 288.499 322.521 290.05 323.544 292.442C323.908 293.293 324.079 294.192 324.068 295.082L312.82 290.559ZM285.838 450.209C274.351 451.226 258.123 451.672 238.462 448.951L285.838 450.209Z" fill="#903518" stroke="white" stroke-width="13" stroke-linejoin="round"/>
<path d="M210.501 176.5C210.538 183.314 212.599 188.559 214.004 191.454C215.127 193.768 217.508 195.202 220.079 195.112C227.062 194.869 234.647 194.895 242.744 195.343C255.023 196.024 266.105 197.544 275.784 199.388C278.614 199.927 281.462 198.539 282.78 195.977C284.098 193.415 283.573 190.291 281.488 188.301L281.488 188.301C281.167 187.994 280.815 187.721 280.438 187.486C275.071 184.141 267.774 179.772 258.867 174.955L258.867 174.955C254.088 172.371 250.329 170.461 246.299 168.416L246.298 168.415C240.304 165.374 232.468 161.493 223.12 157.116C219.989 155.65 216.258 156.892 214.63 159.943C213.067 162.87 210.458 168.732 210.501 176.5ZM210.501 176.5L217.001 176.465M210.501 176.5L217.001 176.465M217.001 176.465C216.986 173.671 217.394 171.177 217.966 169.057C217.847 169.001 217.728 168.946 217.608 168.89L219.082 165.742C219.53 164.636 219.984 163.715 220.364 163.003C229.639 167.345 237.412 171.196 243.357 174.212C247.384 176.256 251.077 178.132 255.775 180.673C257.898 181.821 259.928 182.943 261.86 184.031C267.663 184.762 273.125 185.647 278.217 186.618L277.001 193.001L277.001 193.002L277 193.003L276.998 193.005L273.562 198.519C269.877 196.222 265.247 193.424 259.783 190.324C254.5 189.684 248.934 189.176 243.104 188.853C234.797 188.393 227.016 188.366 219.852 188.616C218.701 186.245 217.031 181.982 217.001 176.465Z" fill="#532322" stroke="white" stroke-width="13" stroke-linejoin="round"/>
<path d="M288.896 198.238C287.838 195.347 288.952 192.11 291.566 190.483C301.676 184.192 312.77 177.863 324.843 171.759L288.896 198.238ZM288.896 198.238C289.955 201.128 292.896 202.88 295.942 202.434M288.896 198.238L295.942 202.434M295.942 202.434C305.267 201.067 315.95 200.163 327.744 200.31L327.745 200.31C335.817 200.409 343.316 200.988 350.156 201.84C352.842 202.174 355.454 200.809 356.713 198.412C358.303 195.386 360.597 190.103 361.294 183.083L361.294 183.082C362.184 174.102 359.985 167.063 358.688 163.677C358.056 162.029 356.782 160.708 355.156 160.018M295.942 202.434L355.156 160.018M355.156 160.018C353.531 159.329 351.696 159.33 350.071 160.022M355.156 160.018L350.071 160.022M350.071 160.022C341.974 163.47 333.539 167.361 324.843 171.759L350.071 160.022Z" fill="#532322" stroke="white" stroke-width="13" stroke-linejoin="round"/>
<path d="M254.684 276.723C251.991 276.001 249.138 277.076 247.592 279.395C246.045 281.715 246.15 284.762 247.852 286.97C255.196 296.495 262.54 306.02 269.885 315.546C272.564 319.02 275.243 322.495 277.922 325.97C279.102 327.5 280.902 328.426 282.833 328.497C284.764 328.567 286.626 327.775 287.914 326.334C293.176 320.453 298.437 314.571 303.698 308.69C309.413 302.3 315.129 295.91 320.845 289.52C322.706 287.439 323.031 284.401 321.65 281.973C320.27 279.546 317.493 278.272 314.753 278.807C306.726 280.377 296.421 281.626 284.459 281.197L284.459 281.197C272.637 280.773 262.539 278.829 254.684 276.723Z" fill="#532322" stroke="white" stroke-width="13" stroke-linejoin="round"/>
<path d="M288.502 196.177C288.44 193.868 289.607 191.7 291.569 190.481C297.072 187.061 304.543 182.613 313.625 177.777L288.502 196.177ZM288.502 196.177C288.564 198.485 289.847 200.587 291.871 201.699M288.502 196.177L291.871 201.699M291.871 201.699L291.872 201.7C293.105 202.376 294.523 202.635 295.916 202.438M291.871 201.699L295.916 202.438M355.122 159.997C356.783 160.685 358.085 162.031 358.718 163.714C359.984 167.081 361.988 173.687 361.392 182.146L355.122 159.997ZM355.122 159.997C353.46 159.309 351.588 159.34 349.95 160.082M355.122 159.997L349.95 160.082M349.95 160.082C340.475 164.378 332.514 168.222 326.419 171.247L349.95 160.082ZM357.028 198.282C355.805 200.748 353.161 202.177 350.428 201.848C343.652 201.032 336.272 200.479 328.362 200.367L357.028 198.282ZM357.028 198.282C358.572 195.169 360.868 189.572 361.392 182.147L357.028 198.282ZM295.916 202.438C305.472 201.079 316.367 200.199 328.362 200.367L295.916 202.438ZM295.001 196.003V196.003ZM326.419 171.248C322.323 173.28 318.5 175.181 313.626 177.777L326.419 171.248Z" fill="#532322" stroke="white" stroke-width="13" stroke-linejoin="round"/>
<path d="M190.247 185.649C189.462 184.883 188.884 183.93 188.566 182.879C182.633 163.251 177.778 139.031 177.512 111.245C177.44 103.77 177.706 96.6202 178.223 89.8287C178.409 87.3867 179.951 85.2564 182.213 84.3178C192.818 79.9179 205.511 75.5056 220.112 72.0252L221.617 78.3406L220.112 72.0252C231.831 69.2319 242.681 67.5385 252.327 66.534C254.663 66.2907 256.948 67.3264 258.305 69.2432C259.662 71.1599 259.88 73.6596 258.874 75.782C256.788 80.1853 253.187 86.9571 247.427 94.2627C239.02 104.926 230.618 110.883 223.276 115.56C222.058 116.336 220.901 117.06 219.799 117.75C214.064 121.341 209.821 123.997 206.268 128.096L190.247 185.649ZM190.247 185.649L190.248 185.65C192.31 187.663 195.451 188.078 197.965 186.67M190.247 185.649L197.965 186.67M197.965 186.67C200.479 185.262 201.766 182.367 201.127 179.557M197.965 186.67L201.127 179.557M201.127 179.557C194.032 148.364 200.555 134.689 206.268 128.097L201.127 179.557Z" fill="#CC5520" stroke="white" stroke-width="13" stroke-linejoin="round"/>
<path d="M334.07 148.34C335.997 148.775 338.017 148.31 339.56 147.077C340.065 146.672 340.502 146.2 340.86 145.678C346.166 138.102 354.042 124.641 357.165 106.203C358.958 95.6148 358.676 86.3754 357.881 79.3755C357.585 76.7719 355.755 74.6006 353.239 73.8684C340.285 70.0984 324.312 66.5407 305.841 64.7348C289.065 63.0944 274.081 63.2751 261.527 64.1927C259.598 64.3336 257.833 65.3255 256.71 66.8991C255.587 68.4727 255.222 70.4646 255.715 72.3339C258.248 81.929 266.489 107.974 291.722 128.113C307.948 141.064 324.436 146.166 334.07 148.34Z" fill="#CC5520" stroke="white" stroke-width="13" stroke-linejoin="round"/>
<path d="M354.309 78.4615C355.99 75.8688 359.263 74.8176 362.139 75.9473L395.102 88.8947C397.328 89.7692 398.895 91.7959 399.179 94.171C400.5 105.184 401.107 118.551 399.679 133.617M354.309 78.4615L352.927 98.3207C352.605 101.431 352.152 104.351 351.621 107.065C351.095 109.757 352.315 112.49 354.671 113.895C360.462 117.35 364.414 121.166 367.133 124.468M354.309 78.4615C353.517 79.6831 353.182 81.0878 353.279 82.4582M354.309 78.4615L358 108.313M399.679 133.617L393.208 133.004M399.679 133.617L393.208 133.004M399.679 133.617C397.323 158.484 390.312 178.608 384.008 192.658C382.566 195.872 378.827 197.352 375.576 195.997C372.325 194.641 370.745 190.942 372.014 187.656C372.834 185.533 376.575 175.446 377.532 162.865C378.492 150.247 376.6 135.963 367.133 124.468M393.208 133.004C392.604 139.388 391.681 145.449 390.537 151.162C390.864 155.586 390.798 159.864 390.495 163.851C389.398 178.267 385.154 189.716 384.141 192.338L378.078 189.997L372.147 187.337C376.381 177.901 380.944 165.557 383.985 150.763C383.094 140.483 379.85 129.684 372.151 120.336M393.208 133.004C394.585 118.471 394 105.574 392.726 94.9447L366.389 84.6C366.356 83.5803 366.31 82.5843 366.252 81.6131C366.157 80.004 365.467 78.4878 364.317 77.3588L364.316 77.3583L359.763 81.9973L359.763 81.9978L359.763 81.9979L353.275 82.3825C353.276 82.4077 353.278 82.4329 353.279 82.4582M367.133 124.468L372.151 120.336M367.133 124.468L372.151 120.336M372.151 120.336C369.014 116.527 364.507 112.194 358 108.313M358 108.313C358.566 105.42 359.049 102.307 359.393 98.99C359.754 95.5003 359.92 92.1785 359.945 89.0522L357.387 88.0473L359.762 81.9989L358 108.313ZM353.279 82.4582C353.554 87.1493 353.532 92.485 352.927 98.3201L353.279 82.4582Z" fill="#CC5520" stroke="white" stroke-width="13" stroke-linejoin="round"/>
<path d="M333.418 75.1325C330.748 73.3687 329.758 69.9233 331.086 67.0113C334.635 59.2302 340.44 48.7407 349.814 38.133L349.814 38.133C361.008 25.4661 372.758 17.758 380.904 13.2977C382.481 12.4341 384.345 12.2623 386.054 12.8234C387.762 13.3845 389.162 14.6282 389.92 16.2587C393.374 23.6895 397.269 34.1574 399.231 47.1455L399.231 47.1459C401.94 65.0828 399.787 80.0313 397.656 89.4354C396.952 92.5431 394.099 94.682 390.918 94.4867C387.738 94.2914 385.168 91.8194 384.849 88.649C383.876 78.968 377.748 70.796 369.239 67.4191L333.418 75.1325ZM333.418 75.1325C336.089 76.8962 339.646 76.4533 341.803 74.0886M333.418 75.1325L341.803 74.0886M341.803 74.0886C348.948 66.2539 359.921 63.7215 369.239 67.419L341.803 74.0886Z" fill="#CC5520" stroke="white" stroke-width="13" stroke-linejoin="round"/>
<path d="M178.805 80.0074C179.301 83.1696 182.026 85.5 185.227 85.5H185.227C188.464 85.5 191.207 83.1187 191.663 79.9142C192.962 70.7646 199.322 63.1429 207.971 60.2936C217.838 57.0434 229.227 60.4973 235.855 69.0833C237.835 71.6476 241.4 72.3628 244.216 70.7602C247.031 69.1577 248.237 65.7266 247.042 62.7152C243.552 53.9121 237.2 41.0828 225.652 28.2782L225.652 28.2782C216.883 18.5546 207.861 11.8898 200.82 7.48826C199.318 6.54969 197.499 6.26429 195.782 6.69802C194.065 7.13175 192.6 8.24708 191.725 9.78618C187.236 17.6771 181.346 30.2918 178.78 46.7541C176.664 60.3277 177.531 71.8842 178.805 80.0074Z" fill="#CC5520" stroke="white" stroke-width="13" stroke-linejoin="round"/>
<path d="M225.75 446.215C224.843 449.391 226.462 452.742 229.513 454.006C232.565 455.27 236.079 454.044 237.682 451.157C242.998 441.586 253.055 424.974 267.397 410.294C281.777 395.575 299.905 383.363 321.37 381.405L321.37 381.405C324.356 381.133 327.462 381.053 330.689 381.208C332.849 381.311 334.92 380.333 336.212 378.599C337.504 376.865 337.85 374.601 337.133 372.561C334.876 366.136 332.714 359.161 330.777 351.658L330.777 351.658C329.626 347.201 328.639 342.877 327.789 338.703C327.386 336.724 326.086 335.045 324.271 334.159C322.456 333.273 320.333 333.281 318.525 334.181C304.82 340.998 281.566 354.776 260.444 380.289C260.43 380.306 260.417 380.322 260.403 380.339C239.32 405.823 229.987 431.384 225.75 446.215Z" fill="#CC5520" stroke="white" stroke-width="13" stroke-linejoin="round"/>
<path d="M217.662 335.764C212.395 360.68 208.817 391.478 211.312 426.379L211.312 426.379C211.954 435.349 212.946 443.894 214.188 451.987C214.655 455.031 217.195 457.33 220.271 457.492C223.346 457.654 226.114 455.636 226.898 452.657C228.805 445.421 230.974 437.905 233.447 430.153L217.662 335.764ZM217.662 335.764C218.191 333.022 220.448 330.865 223.316 330.542C226.603 330.171 229.645 332.329 230.381 335.554C231.851 341.994 233.322 348.434 234.792 354.875C237.974 368.809 241.155 382.743 244.337 396.677C244.63 397.959 244.527 399.3 244.041 400.523C240.399 409.695 236.821 419.578 233.447 430.153L217.662 335.764Z" fill="#CC5520" stroke="white" stroke-width="13" stroke-linejoin="round"/>
<path d="M224.593 212.716C219.305 209.047 211.71 202.478 205.031 190.473C204.918 190.269 204.806 190.065 204.693 189.86C202.963 186.721 199.018 185.574 195.875 187.298C192.731 189.021 191.577 192.964 193.294 196.111C193.415 196.332 193.536 196.552 193.657 196.77C207.901 222.623 222.145 248.476 236.388 274.329C237.104 275.663 238.283 276.747 239.783 277.323C249.763 281.16 265.344 285.817 284.894 286.43C304.087 287.031 319.679 283.502 329.81 280.377C331.281 279.923 332.543 278.962 333.372 277.664L381.478 202.343C383.066 199.857 382.781 196.614 380.783 194.443C378.786 192.272 375.578 191.719 372.969 193.094C366.592 196.456 355.569 201.92 341.28 207.123L341.28 207.123C326.702 212.432 306.046 219.916 284.489 222.952C262.871 225.995 241.436 224.402 224.593 212.716Z" fill="#EA9127" stroke="white" stroke-width="13" stroke-linejoin="round"/>
<path d="M258.396 65.4614C256.748 67.1505 256.145 69.5999 256.821 71.8608C258.241 76.6151 260.001 84.8178 258.668 94.7981L258.668 94.7981C258.651 94.9273 258.633 95.0608 258.615 95.1982C258.109 99.0251 257.185 106.012 252.771 113.033C250.169 117.172 248.279 119.016 244.565 122.64C242.937 124.228 240.959 126.159 238.416 128.775L238.416 128.775C233.794 133.53 227.498 140.541 220.717 150.003C219.557 151.621 219.203 153.682 219.756 155.595C220.309 157.508 221.709 159.062 223.554 159.811C231.32 162.966 240.428 165.83 250.761 167.613L251.866 161.207L250.761 167.613C285.766 173.652 314.847 163.862 330.458 157.015C331.517 156.55 332.432 155.812 333.111 154.875C334.033 153.602 334.955 152.328 335.877 151.055C337.006 149.497 338.135 147.939 339.264 146.38C340.341 144.893 340.739 143.02 340.36 141.223C339.98 139.427 338.858 137.874 337.272 136.95C323.587 128.979 305.369 116.022 288.371 95.5494L288.371 95.5492C280.051 85.5306 273.648 75.6677 268.727 66.836C267.728 65.043 265.941 63.8272 263.907 63.5565C261.872 63.2857 259.829 63.9917 258.396 65.4609L258.396 65.4614Z" fill="#EA9127" stroke="white" stroke-width="13" stroke-linejoin="round"/>
<path d="M225.483 328.877C223.501 328.096 221.263 328.336 219.491 329.518C217.72 330.7 216.64 332.675 216.601 334.804C216.456 342.64 216.463 350.686 216.648 358.932C217.177 382.482 219.084 404.526 221.835 424.874C222.238 427.857 224.637 430.173 227.631 430.471C230.626 430.77 233.435 428.973 234.419 426.129C241.576 405.449 251.634 382.147 265.976 357.901C271.337 348.838 276.827 340.437 282.309 332.677C284.006 330.275 283.878 327.032 281.998 324.771L280.367 322.81L278.735 320.847C277.486 319.345 275.628 318.485 273.675 318.504C271.721 318.523 269.88 319.419 268.66 320.945C266.731 323.358 264.269 325.752 261.128 327.729C254.122 332.137 246.222 332.88 239.3 332.199C232.391 331.519 226.983 329.468 225.483 328.877Z" fill="#EA9127" stroke="white" stroke-width="13" stroke-linejoin="round"/>
<path d="M225.5 447.999C225.5 451.211 227.847 453.942 231.023 454.425C234.199 454.908 237.252 452.998 238.206 449.931C242.707 435.474 252.205 411.42 272.525 387.542C291.523 365.218 311.988 352.436 325.012 345.627C327.564 344.292 328.934 341.438 328.378 338.612C326.712 330.145 325.354 320.687 324.652 310.362L324.652 310.362C324.288 305.001 324.132 299.872 324.134 295.001C324.135 292.344 322.519 289.955 320.053 288.966C317.588 287.977 314.769 288.588 312.934 290.509C299.348 304.73 284.373 322.745 270.187 344.961C245.935 382.942 232.96 419.157 225.719 446.324C225.574 446.87 225.5 447.433 225.5 447.998V447.999Z" fill="#EA9127" stroke="white" stroke-width="13" stroke-linejoin="round"/>
<path d="M202.982 7.68659C206.801 10.3246 210.867 13.462 215.011 17.1879L202.982 7.68659ZM202.982 7.68659C201.903 6.92676 200.601 6.5 199.238 6.5H199.237C196.804 6.5 194.612 7.85404 193.499 9.94593C191.1 14.2905 188.629 19.4756 186.46 25.4839L202.982 7.68659ZM186.104 58.4379C182.63 57.9541 180.166 54.8014 180.537 51.3135C181.288 44.2381 182.915 35.3013 186.46 25.4843L186.104 58.4379ZM186.104 58.4379C189.578 58.9217 192.809 56.5621 193.405 53.1057M186.104 58.4379L193.405 53.1057M193.405 53.1057C193.741 51.162 195.299 44.1223 200.704 40.7545L193.405 53.1057ZM232.924 48.1858C230.158 50.2801 226.235 49.8331 224.011 47.1704C216.583 38.2766 206.485 37.1526 200.704 40.7544L232.924 48.1858ZM232.924 48.1858C235.69 46.0916 236.323 42.1944 234.364 39.3317M232.924 48.1858L234.364 39.3317M234.364 39.3317C229.753 32.5981 223.455 24.7796 215.011 17.1883L234.364 39.3317Z" fill="#903518" stroke="white" stroke-width="13" stroke-linejoin="round"/>
<path d="M384.29 12.4989C383.181 12.4989 382.112 12.7815 381.17 13.2968C376.841 15.6211 372.106 18.5245 367.219 22.1546C358.392 28.7115 351.772 35.6319 346.964 41.5256C344.77 44.2141 345.075 48.1512 347.656 50.4699C350.238 52.7887 354.185 52.6713 356.624 50.2033C364.425 42.3089 374.871 41.6844 380.802 45.7056L380.803 45.7057C386.451 49.5351 387.387 56.9481 387.524 58.5497C387.82 62.0367 390.824 64.663 394.32 64.4911C397.815 64.3191 400.547 61.4106 400.5 57.9113C400.407 51.0287 399.542 41.9696 396.471 31.8248L396.471 31.8244C394.619 25.709 392.347 20.4607 390.123 16.1277C389.047 13.9412 386.805 12.4989 384.291 12.4989H384.29Z" fill="#903518" stroke="white" stroke-width="13" stroke-linejoin="round"/>
<path d="M329.475 280.35C330.951 279.897 332.217 278.933 333.047 277.632C342.428 262.922 351.809 248.211 361.189 233.501L369.481 220.498C371.294 217.654 370.631 213.895 367.954 211.844C365.277 209.792 361.475 210.129 359.201 212.62C348.844 223.961 327.703 243.94 294.68 255.646C273.264 263.237 254.177 264.755 241.029 264.696C237.889 264.682 235.188 266.915 234.611 270.001C234.034 273.087 235.745 276.145 238.678 277.267C249.371 281.358 266.339 286.355 287.601 286.5C305.104 286.619 319.512 283.41 329.475 280.35Z" fill="#CC5520" stroke="white" stroke-width="13" stroke-linejoin="round"/>
<path d="M59.0268 69.9996C46.015 88.6054 26.7652 121.233 17.425 166.031C9.61366 203.496 11.6807 235.336 14.7203 256.176C35.1252 270.907 51.7679 273.882 62.9709 273.996C89.104 274.261 118.737 259.292 147.076 258.613C152.937 258.474 158.975 258.653 158.975 258.653C171.295 259.019 181.56 260.332 189 261.564C182.457 259.736 78.9613 229.139 57.6179 140.512C50.927 112.729 54.3551 87.741 59.0268 69.9996Z" fill="#EA9127"/>
<path d="M18.0002 269.775C22.6712 291.796 33.117 325.628 58.4782 359.054C111.872 429.43 190.898 444.656 211.717 448.004C208.231 428.258 205.44 399.999 209.443 366.508C213.465 332.852 222.913 305.92 231 287.497C194.498 268.671 165.877 266.696 146.182 268.564C109.141 272.077 82.445 291.196 43.4383 280.662C32.1252 277.608 23.446 273.049 18.0007 269.775L18.0002 269.775Z" fill="#EA9127"/>
<path d="M72.0004 374.687C89.1189 374.136 113.238 371.203 139.765 360.47C190.706 339.859 219.336 303.104 231 286C226.762 295.712 222.796 306.303 219.382 317.767C204.186 368.777 206.437 415.091 211.696 448C177.72 442.039 130.791 427.812 89.3565 391.588C83.018 386.046 77.2501 380.377 72.0004 374.687Z" fill="#903518"/>
<path d="M58.1472 69.9996C48.4414 84.2452 37.4602 103.332 28.6183 127.2C15.4035 162.871 12.3219 194.765 12 216.611C17.3822 211.063 22.8081 207.573 27.5782 205.311C65.3155 187.408 110.592 223.229 114 226C103.581 218.247 64.6736 187.375 55.0781 132.827C50.3918 106.187 54.4246 83.7271 58.1476 70.0001L58.1472 69.9996Z" fill="#F6D365"/>
<path d="M18.0007 268.004C28.8745 280.541 52.335 303.861 89.3085 314.923C161.898 336.639 223.074 292.102 231 286.13C220.957 301.43 198.355 331.386 158.332 352.837C122.75 371.909 89.912 375.408 72.1753 376.004C61.9801 364.671 49.3164 348.296 38.2878 326.518C26.8836 303.998 21.0957 283.341 18.0002 268.004H18.0007Z" fill="#CC5520"/>
<path d="M196.375 13C192.064 20.5851 186.4 32.7623 184.068 48.6431C182.262 60.9446 183.044 71.4578 184.227 79C192.213 76.1859 201.046 73.4498 210.674 71.014C221.148 68.3645 230.988 66.4689 240 65.1113C237.103 57.7826 232.275 47.9429 224.176 37.7634C214.425 25.5066 203.838 17.6674 196.375 13L196.375 13Z" fill="#EA9127"/>
<path d="M383.015 18.9989C375.792 22.9477 365.585 29.5981 355.613 40.3058C345.475 51.1919 339.467 62.0964 336 69.7082C344.543 71.686 353.825 74.2375 363.655 77.5512C373.433 80.847 382.329 84.4173 390.305 87.9989C392.143 79.961 394.009 67.536 392.37 52.5122C390.771 37.8542 386.453 26.3759 383.016 18.9989H383.015Z" fill="#EA9127"/>
<path d="M184.046 90.4359C182.856 102.68 182.41 117.784 184.183 134.921C186.073 153.187 189.965 168.75 193.946 180.999C204.588 156.424 217.759 141.061 228.367 131.346C238.043 122.486 248.752 115.426 253.139 101.343C256.509 90.5267 254.693 80.2473 252.478 72.999C243.425 73.9155 233.294 75.4624 222.38 78.0039C207.518 81.4648 194.674 85.9617 184.046 90.4359Z" fill="#E39334"/>
<path d="M262.659 70.6729C264.07 75.4657 265.767 83.4002 264.879 93.1619C264.541 96.8814 263.716 105.099 259.109 113.915C253.288 125.055 247.119 126.258 233.041 142.688C229.429 146.903 226.685 150.501 225 152.78C245.491 163.186 265.982 173.593 286.473 184C296.393 178.671 341.896 152.932 349.826 104.937C350.971 98.0088 351.491 89.6632 350.401 80.0795C337.442 76.249 321.392 72.661 302.804 70.9867C287.744 69.6304 274.2 69.817 262.659 70.6738L262.659 70.6729Z" fill="#F6D365"/>
<path d="M391.745 94.9443C392.574 101.979 393.059 109.593 392.995 117.716C392.757 147.586 385.177 172.354 377.687 189.997C377.653 188.592 376.973 172.291 362.649 162.992C348.985 154.121 334.544 159.18 333 159.751C338.763 153.315 346.27 143.389 351.981 129.78C360.33 109.886 360.682 92.0229 360.11 81.9973C370.655 86.3131 381.2 90.629 391.745 94.9448V94.9443Z" fill="#EA9127"/>
<path d="M198 192.997C212.366 219.083 226.733 245.168 241.1 271.254C250.481 274.862 264.825 279.142 282.747 279.885C301.654 280.668 317.001 277.201 326.846 274.163C342.897 249.034 358.949 223.905 375 198.776C369.773 200.186 362.917 201.767 354.789 202.928C347.933 203.908 339.536 204.68 328.514 204.631C306.589 204.533 305.445 201.321 285.013 200.643C266.622 200.033 266.53 202.6 245.639 201.578C233.197 200.97 223.827 199.599 215.425 197.771C208.322 196.226 202.402 194.46 198 192.998L198 192.997Z" fill="#F6D365"/>
<path d="M239.933 286C251.955 300.582 263.978 315.162 276 329.743C264.855 345.681 252.609 365.805 241.55 390.125C231.38 412.491 224.559 433.25 219.896 451C215.036 420.275 212.528 375.89 225.94 326.011C229.917 311.219 234.776 297.869 239.932 286.001L239.933 286Z" fill="#F6D365"/>
<path d="M316.568 294.999C301.395 310.887 283.323 332.802 266.786 361.336C247.764 394.157 237.147 424.739 231 447.96C253.576 451.761 272.115 451.335 284.838 450.209C305.79 448.355 314.363 444.302 320.548 439.841C323.177 437.944 331.274 432.103 335.838 422.547C345.651 402.002 330.269 382.858 321.713 343.606C319.271 332.401 316.583 315.88 316.568 294.999H316.568Z" fill="#903518"/>
<path d="M276 193.002C270.722 189.713 263.542 185.413 254.775 180.673C250.077 178.132 246.384 176.256 242.357 174.212C236.412 171.196 228.639 167.345 219.364 163.003C218.081 165.407 215.966 170.176 216.001 176.465C216.031 181.982 217.701 186.245 218.852 188.616C226.016 188.366 233.797 188.393 242.104 188.853C254.701 189.551 266.07 191.111 276 193.003L276 193.002Z" fill="#532322"/>
<path d="M294 196.002C303.96 189.804 314.887 183.57 326.776 177.559C335.34 173.229 343.645 169.397 351.618 166.002C352.715 168.865 354.579 174.836 353.825 182.441C353.236 188.381 351.295 192.845 349.959 195.39C342.899 194.511 335.158 193.913 326.825 193.81C314.649 193.659 303.623 194.592 294 196.002Z" fill="#532322"/>
<path d="M252 283.001C260.236 285.21 270.825 287.248 283.226 287.692C295.774 288.142 306.582 286.832 315 285.187C304.023 297.458 293.046 309.73 282.07 322.001C272.047 309.001 262.023 296.001 252 283.001Z" fill="#532322"/>
<path d="M294 196.002C299.407 192.641 306.752 188.268 315.681 183.514C320.466 180.965 324.218 179.1 328.309 177.07C334.348 174.072 342.239 170.261 351.634 166.002C352.707 168.856 354.416 174.484 353.908 181.689C353.462 188.01 351.508 192.766 350.205 195.394C343.219 194.554 335.61 193.983 327.453 193.868C315.085 193.695 303.852 194.602 294.001 196.002L294 196.002Z" fill="#532322"/>
<path d="M193.788 180.999C187.999 161.847 183.27 138.244 183.011 111.183C182.941 103.902 183.201 96.9377 183.704 90.3216C194.033 86.0359 206.397 81.7381 220.619 78.3481C232.034 75.6272 242.603 73.9776 252 72.999C250.052 77.1106 246.692 83.4276 241.322 90.2382C225.781 109.951 210.417 112.231 200.356 123.839C192.881 132.465 186.393 148.481 193.789 180.999L193.788 180.999Z" fill="#CC5520"/>
<path d="M334.501 142C325.436 139.954 309.974 135.162 294.777 123.033C271.147 104.173 263.39 79.7309 261 70.6754C273.242 69.7807 287.852 69.6045 304.208 71.2039C322.217 72.9647 337.791 76.4335 350.422 80.1094C351.165 86.6432 351.426 95.255 349.756 105.118C346.841 122.332 339.471 134.912 334.501 141.999V142Z" fill="#CC5520"/>
<path d="M358.763 81.9973C369.751 86.3131 380.738 90.6289 391.726 94.9447C393 105.574 393.585 118.471 392.208 133.004C389.936 156.992 383.171 176.417 377.078 189.997C378.91 185.251 393.049 146.926 371.151 120.336C368.014 116.527 363.507 112.194 357 108.313C357.566 105.42 358.049 102.307 358.393 98.99C359.041 92.7333 359.061 87.0163 358.764 81.9978L358.763 81.9973Z" fill="#CC5520"/>
<path d="M336 69.7085C339.354 62.3548 344.837 52.4496 353.685 42.4372C364.249 30.4831 375.339 23.2083 383.026 18.9989C386.284 26.0073 389.955 35.8755 391.804 48.1165C394.357 65.0223 392.329 79.1204 390.317 87.9989C389.111 76.0058 381.498 65.6881 370.637 61.3774C358.722 56.6493 344.905 59.945 336 69.7085Z" fill="#CC5520"/>
<path d="M184.227 79C183.029 71.3636 182.215 60.5055 184.203 47.7551C186.613 32.2898 192.148 20.4293 196.374 13C203.032 17.162 211.551 23.4567 219.825 32.6315C230.718 44.7094 236.708 56.8094 240 65.1113C231.719 54.3844 217.471 49.9914 204.938 54.12C193.911 57.752 185.87 67.4327 184.227 79H184.227Z" fill="#CC5520"/>
<path d="M264.451 384.435C244.1 409.017 235.089 433.687 231 448.001C241.858 428.452 272.543 379.241 319.779 374.932C323.058 374.633 326.466 374.545 330 374.715C327.686 368.127 325.469 360.975 323.483 353.283C322.303 348.712 321.291 344.278 320.419 340C307.221 346.566 284.808 359.844 264.451 384.434V384.435Z" fill="#CC5520"/>
<path d="M223.044 337.002C217.866 361.46 214.348 391.679 216.796 425.915C217.424 434.702 218.396 443.073 219.613 451.001C221.546 443.662 223.747 436.04 226.254 428.177C229.676 417.452 233.306 407.427 237 398.124C232.348 377.749 227.696 357.375 223.044 337.001V337.002Z" fill="#CC5520"/>
<path d="M241.116 271.256C226.744 245.17 212.372 219.084 198 192.997C205.323 206.416 213.836 213.857 219.888 218.056C257.469 244.13 313.454 223.809 342.504 213.231C357.152 207.897 368.454 202.295 375 198.844C358.965 223.951 342.929 249.058 326.894 274.166C317.241 277.143 302.384 280.506 284.098 279.933C265.47 279.349 250.624 274.912 241.116 271.256H241.116Z" fill="#EA9127"/>
<path d="M262.049 70.0001C263.632 75.2991 265.605 84.4723 264.111 95.6584C263.615 99.378 262.673 107.904 257.274 116.492C253.045 123.22 249.777 125.384 242.077 133.306C237.63 137.88 231.555 144.643 225 153.789C232.395 156.793 241.053 159.514 250.866 161.207C284.105 166.942 311.817 157.655 326.847 151.062C328.898 148.231 330.948 145.399 333 142.567C318.835 134.316 299.97 120.899 282.37 99.7016C273.759 89.3314 267.135 79.1278 262.049 69.9996L262.049 70.0001Z" fill="#EA9127"/>
<path d="M263.589 333.231C246.308 344.105 225.566 336.29 222.1 334.924C221.956 342.674 221.964 350.631 222.147 358.786C222.669 382.076 224.555 403.878 227.276 424.003C234.555 402.97 244.788 379.263 259.381 354.592C264.836 345.37 270.423 336.822 276 328.927C274.912 327.619 273.825 326.311 272.738 325.003C270.433 327.886 267.445 330.804 263.589 333.231Z" fill="#EA9127"/>
<path d="M231 447.999C235.663 433.018 245.507 408.087 266.575 383.329C286.274 360.181 307.493 346.929 321 339.867C319.286 331.156 317.889 321.426 317.167 310.803C316.792 305.287 316.632 300.01 316.634 294.999C303.294 308.962 288.592 326.649 274.666 348.459C250.857 385.747 238.114 421.307 231 447.998V447.999Z" fill="#EA9127"/>
<path d="M198.238 13C195.969 17.0996 193.628 22.0021 191.574 27.6914C188.241 36.9217 186.708 45.3317 186 52C186.341 50.0264 188.219 40.252 196.267 35.2376C205.444 29.5201 219.019 32.2509 228 43.0038C223.623 36.6103 217.654 29.2043 209.665 22.0216C205.727 18.4801 201.863 15.5016 198.237 13L198.238 13Z" fill="#903518"/>
<path d="M383.29 18.9989C385.378 23.0533 387.512 27.9715 389.25 33.7084C392.108 43.1485 392.914 51.583 393 57.9989C392.858 56.3306 391.818 45.9988 383.45 40.3256C374.449 34.2225 360.57 35.9502 351 45.6345C355.537 40.0739 361.777 33.551 370.095 27.3725C374.718 23.9388 379.196 21.1946 383.291 18.9989H383.29Z" fill="#903518"/>
<path d="M326.567 274.137C338.712 255.093 350.856 236.048 363 217.003C352.245 228.782 330.249 249.579 295.852 261.773C273.545 269.68 253.674 271.257 240 271.196C250.201 275.099 266.379 279.862 286.646 280C303.329 280.114 317.065 277.054 326.567 274.137Z" fill="#CC5520"/>
</svg>
