<svg width="134" height="17" viewBox="0 0 134 17" fill="none" xmlns="http://www.w3.org/2000/svg">
<path fill-rule="evenodd" clip-rule="evenodd" d="M49.0007 0.65625C46.828 0.65625 46.5553 0.66575 45.702 0.704583C44.8503 0.743583 44.269 0.878417 43.7603 1.07625C43.2342 1.28058 42.7878 1.55392 42.3432 1.99875C41.8982 2.44342 41.6248 2.88975 41.4198 3.41575C41.2215 3.92458 41.0865 4.50608 41.0482 5.35742C41.01 6.21075 41 6.48358 41 8.65625C41 10.8289 41.0097 11.1007 41.0483 11.9541C41.0875 12.8057 41.2223 13.3871 41.42 13.8958C41.6245 14.4219 41.8978 14.8683 42.3427 15.3129C42.7872 15.7579 43.2335 16.0319 43.7593 16.2363C44.2683 16.4341 44.8498 16.5689 45.7013 16.6079C46.5547 16.6468 46.8272 16.6562 48.9997 16.6562C51.1725 16.6562 51.4443 16.6468 52.2977 16.6079C53.1493 16.5689 53.7313 16.4341 54.2403 16.2363C54.7663 16.0319 55.212 15.7579 55.6565 15.3129C56.1015 14.8683 56.3748 14.4219 56.5798 13.8959C56.7765 13.3871 56.9115 12.8056 56.9515 11.9543C56.9898 11.1009 56.9998 10.8289 56.9998 8.65625C56.9998 6.48358 56.9898 6.21092 56.9515 5.35758C56.9115 4.50592 56.7765 3.92458 56.5798 3.41592C56.3748 2.88975 56.1015 2.44342 55.6565 1.99875C55.2115 1.55375 54.7665 1.28042 54.2398 1.07625C53.7298 0.878417 53.1482 0.743583 52.2965 0.704583C51.4432 0.66575 51.1715 0.65625 48.9982 0.65625H49.0007ZM48.2832 2.09792C48.4962 2.09758 48.7338 2.09792 49.0008 2.09792C51.1368 2.09792 51.39 2.10558 52.2335 2.14392C53.0135 2.17958 53.4368 2.30992 53.7188 2.41942C54.0922 2.56442 54.3583 2.73775 54.6382 3.01775C54.9182 3.29775 55.0915 3.56442 55.2368 3.93775C55.3463 4.21942 55.4768 4.64275 55.5123 5.42275C55.5507 6.26608 55.559 6.51942 55.559 8.65442C55.559 10.7894 55.5507 11.0427 55.5123 11.8861C55.4767 12.6661 55.3463 13.0894 55.2368 13.3711C55.0918 13.7444 54.9182 14.0102 54.6382 14.2901C54.3582 14.5701 54.0923 14.7434 53.7188 14.8884C53.4372 14.9984 53.0135 15.1284 52.2335 15.1641C51.3902 15.2024 51.1368 15.2107 49.0008 15.2107C46.8647 15.2107 46.6115 15.2024 45.7682 15.1641C44.9882 15.1281 44.5648 14.9977 44.2827 14.8882C43.9093 14.7432 43.6427 14.5699 43.3627 14.2899C43.0827 14.0099 42.9093 13.7439 42.764 13.3704C42.6545 13.0887 42.524 12.6654 42.4885 11.8854C42.4502 11.0421 42.4425 10.7887 42.4425 8.65242C42.4425 6.51608 42.4502 6.26408 42.4885 5.42075C42.5242 4.64075 42.6545 4.21742 42.764 3.93542C42.909 3.56208 43.0827 3.29542 43.3627 3.01542C43.6427 2.73542 43.9093 2.56208 44.2827 2.41675C44.5647 2.30675 44.9882 2.17675 45.7682 2.14092C46.5062 2.10758 46.7922 2.09758 48.2832 2.09592V2.09792ZM53.2712 3.42625C52.7412 3.42625 52.3112 3.85575 52.3112 4.38592C52.3112 4.91592 52.7412 5.34592 53.2712 5.34592C53.8012 5.34592 54.2312 4.91592 54.2312 4.38592C54.2312 3.85592 53.8012 3.42592 53.2712 3.42592V3.42625ZM49.0008 4.5479C46.7319 4.5479 44.8924 6.3874 44.8924 8.65624C44.8924 10.9251 46.7319 12.7637 49.0008 12.7637C51.2696 12.7637 53.1084 10.9251 53.1084 8.65624C53.1084 6.3874 51.2694 4.5479 49.0006 4.5479H49.0008ZM49.0007 5.98957C50.4734 5.98957 51.6674 7.1834 51.6674 8.65624C51.6674 10.1289 50.4734 11.3229 49.0007 11.3229C47.5279 11.3229 46.334 10.1289 46.334 8.65624C46.334 7.1834 47.5279 5.98957 49.0007 5.98957Z" fill="white"/>
<path fill-rule="evenodd" clip-rule="evenodd" d="M123.934 4.9125L123.976 5.60455L123.277 5.51981C120.731 5.19497 118.506 4.09335 116.618 2.24318L115.695 1.32516L115.457 2.00309C114.953 3.51429 115.275 5.11023 116.324 6.1836C116.884 6.77679 116.758 6.86153 115.793 6.50844C115.457 6.39545 115.163 6.31071 115.135 6.35308C115.037 6.45195 115.373 7.73717 115.639 8.24562C116.002 8.95178 116.744 9.64383 117.555 10.0534L118.241 10.3782L117.429 10.3924C116.646 10.3924 116.618 10.4065 116.702 10.7031C116.982 11.6211 118.087 12.5956 119.318 13.0193L120.185 13.3159L119.43 13.7679C118.311 14.4175 116.996 14.7847 115.681 14.813C115.051 14.8271 114.533 14.8836 114.533 14.926C114.533 15.0672 116.24 15.8581 117.233 16.1688C120.213 17.0868 123.753 16.6914 126.411 15.1237C128.299 14.008 130.188 11.7906 131.069 9.64383C131.545 8.49984 132.02 6.40958 132.02 5.40682C132.02 4.75714 132.062 4.6724 132.846 3.89562C133.307 3.44367 133.741 2.94935 133.825 2.80812C133.965 2.53977 133.951 2.53977 133.238 2.77987C132.048 3.20357 131.881 3.14708 132.468 2.51153C132.902 2.05958 133.419 1.24042 133.419 1.00033C133.419 0.957957 133.21 1.02857 132.972 1.15568C132.72 1.29692 132.16 1.50877 131.741 1.63588L130.985 1.87598L130.3 1.4099C129.922 1.15568 129.39 0.873217 129.111 0.788477C128.397 0.590749 127.306 0.618996 126.662 0.84497C124.914 1.48052 123.809 3.11883 123.934 4.9125Z" fill="white"/>
<path fill-rule="evenodd" clip-rule="evenodd" d="M19.8275 1.13393C20.7853 1.39677 21.5397 2.17122 21.7957 3.1547C22.2609 4.93715 22.2609 8.65625 22.2609 8.65625C22.2609 8.65625 22.2609 12.3752 21.7957 14.1578C21.5397 15.1413 20.7853 15.9157 19.8275 16.1787C18.0916 16.6562 11.1304 16.6562 11.1304 16.6562C11.1304 16.6562 4.16923 16.6562 2.43327 16.1787C1.47542 15.9157 0.721075 15.1413 0.465075 14.1578C0 12.3752 0 8.65625 0 8.65625C0 8.65625 0 4.93715 0.465075 3.1547C0.721075 2.17122 1.47542 1.39677 2.43327 1.13393C4.16923 0.65625 11.1304 0.65625 11.1304 0.65625C11.1304 0.65625 18.0916 0.65625 19.8275 1.13393ZM9.0437 5.52539V12.4819L14.6089 9.00378L9.0437 5.52539Z" fill="white"/>
<path fill-rule="evenodd" clip-rule="evenodd" d="M86.9643 16.6562V8.65531H89.1729L89.4656 5.89815H86.9643L86.968 4.51816C86.968 3.79905 87.0364 3.41373 88.0692 3.41373H89.4499V0.65625H87.241C84.5878 0.65625 83.6539 1.99377 83.6539 4.24307V5.89846H82V8.65563H83.6539V16.6562H86.9643Z" fill="white"/>
</svg>
